<svg width="271" height="172" viewBox="0 0 271 172" fill="none" xmlns="http://www.w3.org/2000/svg">
    <g clip-path="url(#clip0)">
        <path d="M207.484 170.055C204.014 166.943 201.907 162.026 202.46 157.24C203.012 152.454 206.435 148.054 210.876 147.037C215.316 146.021 220.378 148.834 221.726 153.439C222.469 144.561 223.324 135.312 227.77 127.752C231.796 120.906 238.768 116.008 246.325 115.132C253.882 114.255 261.838 117.565 266.551 123.897C271.264 130.229 272.418 139.434 269.117 146.704C266.686 152.059 262.206 156.044 257.512 159.287C242.345 169.676 224.154 173.9 206.286 171.184L207.484 170.055Z"
              fill="#F2F2F2"/>
        <path d="M259.079 117.749C252.843 123.14 247.123 129.17 242.001 135.752C233.984 146.016 227.497 157.525 222.765 169.876C222.419 170.777 223.797 171.169 224.139 170.278C231.881 150.205 244.24 132.512 260.086 118.818C260.798 118.203 259.784 117.138 259.079 117.749Z"
              fill="white"/>
        <path d="M87.2393 169.209C92.0047 164.935 94.8992 158.182 94.1402 151.608C93.3811 145.034 88.6794 138.99 82.5807 137.594C76.482 136.198 69.5299 140.063 67.6775 146.387C66.6581 134.194 65.4833 121.49 59.3767 111.106C53.8473 101.704 44.2703 94.9758 33.8909 93.7723C23.5116 92.5687 12.5835 97.1144 6.11029 105.811C-0.362921 114.508 -1.94786 127.152 2.58581 137.136C5.9256 144.492 12.0787 149.966 18.5256 154.419C39.0934 168.627 64.6078 174.553 88.8851 170.76"
              fill="#F2F2F2"/>
        <path d="M16.3742 97.3664C24.9384 104.772 32.7952 113.054 39.8309 122.094C46.8677 131.124 53.0629 140.857 58.3293 151.157C61.273 156.935 63.9175 162.879 66.2508 168.963C66.7265 170.201 64.8335 170.74 64.363 169.516C60.2302 158.79 55.117 148.52 49.097 138.853C43.1062 129.221 36.2493 120.228 28.6229 112.002C24.3093 107.351 19.7581 102.956 14.9899 98.836C14.0126 97.9911 15.4049 96.5285 16.3742 97.3664L16.3742 97.3664Z"
              fill="white"/>
        <path d="M194.528 171.624H80.8328V47.7834C80.8328 21.4355 101.025 0 125.844 0H149.517C174.336 0 194.528 21.4355 194.528 47.7834V171.624Z"
              fill="#F2F2F2"/>
        <path d="M170.855 171.624H80.8328V47.7835C80.8079 37.6875 83.8194 27.8468 89.4287 19.694C89.6355 19.3948 89.8417 19.0995 90.0544 18.8074C92.7676 15.0297 95.9964 11.7027 99.6342 8.93634C99.8397 8.77762 100.046 8.62165 100.255 8.46567C103.299 6.22941 106.592 4.40132 110.059 3.02299C110.265 2.94016 110.474 2.85716 110.684 2.77756C113.819 1.58978 117.069 0.776153 120.374 0.351708C120.579 0.321996 120.789 0.298746 120.999 0.275496C124.22 -0.090062 127.468 -0.090062 130.689 0.275496C130.898 0.298746 131.109 0.321993 131.316 0.352026C134.62 0.776498 137.869 1.59002 141.004 2.77757C141.213 2.85718 141.423 2.94017 141.629 3.02316C145.053 4.3841 148.307 6.18492 151.319 8.38543C151.528 8.53801 151.737 8.69399 151.944 8.84996C153.983 10.3952 155.898 12.1166 157.67 13.9967C159.091 15.5047 160.415 17.1122 161.634 18.8084C161.846 19.0995 162.052 19.3948 162.258 19.6935C167.868 27.8464 170.879 37.6873 170.855 47.7835V171.624Z"
              fill="#CCCCCC"/>
        <path d="M163.534 116.234C166.287 116.234 168.518 113.866 168.518 110.944C168.518 108.021 166.287 105.653 163.534 105.653C160.782 105.653 158.551 108.021 158.551 110.944C158.551 113.866 160.782 116.234 163.534 116.234Z"
              fill="#388894"/>
        <path d="M185.214 167.914H181.395L179.578 152.277L185.215 152.277L185.214 167.914Z" fill="#FFB8B8"/>
        <path d="M178.667 166.756H186.032V171.679H174.03C174.03 171.032 174.15 170.392 174.383 169.795C174.616 169.197 174.958 168.655 175.388 168.198C175.819 167.741 176.33 167.378 176.893 167.131C177.455 166.883 178.058 166.756 178.667 166.756Z"
              fill="#2F2E41"/>
        <path d="M204.215 167.914H200.396L198.579 152.277L204.216 152.277L204.215 167.914Z" fill="#FFB8B8"/>
        <path d="M197.669 166.756H205.033V171.679H193.031C193.031 171.032 193.151 170.392 193.384 169.795C193.617 169.197 193.959 168.655 194.39 168.198C194.82 167.741 195.331 167.378 195.894 167.131C196.457 166.883 197.06 166.756 197.669 166.756Z"
              fill="#2F2E41"/>
        <path d="M166.057 111.992C165.782 111.562 165.6 111.074 165.522 110.561C165.444 110.048 165.473 109.523 165.607 109.024C165.741 108.524 165.977 108.062 166.297 107.67C166.618 107.277 167.015 106.964 167.462 106.753L180.444 68.7684L186.832 72.4692L172.009 108.768C172.294 109.589 172.286 110.491 171.986 111.306C171.686 112.12 171.115 112.789 170.382 113.187C169.648 113.584 168.802 113.682 168.005 113.462C167.208 113.241 166.515 112.718 166.057 111.992Z"
              fill="#FFB8B8"/>
        <path d="M202.265 119.129C201.84 118.871 201.474 118.517 201.193 118.092C200.911 117.667 200.721 117.182 200.635 116.671C200.549 116.16 200.57 115.635 200.695 115.133C200.821 114.631 201.049 114.165 201.363 113.767L197.342 73.5857L204.611 73.9382L206.283 113.461C206.878 114.066 207.243 114.881 207.31 115.753C207.377 116.624 207.14 117.491 206.645 118.19C206.15 118.889 205.43 119.37 204.623 119.543C203.816 119.716 202.976 119.569 202.265 119.129Z"
              fill="#FFB8B8"/>
        <path d="M190.667 61.7327C194.893 61.7327 198.318 58.0965 198.318 53.6109C198.318 49.1253 194.893 45.489 190.667 45.489C186.442 45.489 183.017 49.1253 183.017 53.6109C183.017 58.0965 186.442 61.7327 190.667 61.7327Z"
              fill="#FFB8B8"/>
        <path d="M202.216 109.991H179.151L179.178 109.8C179.22 109.515 183.289 81.2165 180.288 71.9584C179.987 71.0486 180.013 70.0527 180.362 69.1623C180.711 68.272 181.358 67.5502 182.178 67.1359H182.178C186.468 64.9913 194.703 62.3505 201.653 68.7593C202.676 69.7178 203.474 70.9159 203.986 72.2586C204.497 73.6014 204.707 75.052 204.6 76.4959L202.216 109.991Z"
              fill="#388894"/>
        <path d="M183.58 85.3986L173.196 83.1621L178.064 70.917C178.355 69.731 179.078 68.7161 180.073 68.0949C181.068 67.4736 182.255 67.2968 183.373 67.6032C184.491 67.9095 185.448 68.6741 186.036 69.7291C186.623 70.7842 186.793 72.0435 186.507 73.231L183.58 85.3986Z"
              fill="#388894"/>
        <path d="M196.88 89.5511L196.256 74.3592C195.782 71.5033 197.322 68.8036 199.691 68.3623C202.06 67.9227 204.373 69.9034 204.849 72.7802L207.195 86.9756L196.88 89.5511Z"
              fill="#388894"/>
        <path d="M201.448 108.172C205.16 123.177 205.564 142.255 204.563 163.065L199.579 162.404L190.546 122.722L185.562 163.065L179.955 162.734C178.28 140.9 176.649 122.155 179.332 109.825L201.448 108.172Z"
              fill="#2F2E41"/>
        <path d="M195.708 59.8877C194.281 61.5017 191.631 60.6352 191.445 58.4303C191.43 58.2591 191.431 58.0868 191.448 57.9159C191.544 56.9392 192.075 56.0525 191.948 55.0212C191.919 54.7646 191.829 54.52 191.686 54.3106C190.549 52.6938 187.879 55.0338 186.806 53.5701C186.148 52.6727 186.921 51.2596 186.416 50.2565C185.75 48.9326 183.775 49.5857 182.537 48.8607C181.159 48.054 181.242 45.8101 182.148 44.4452C183.254 42.7807 185.194 41.8925 187.108 41.7645C189.023 41.6365 190.925 42.186 192.713 42.9257C194.744 43.766 196.759 44.9274 198.009 46.8236C199.529 49.1295 199.675 52.2295 198.915 54.9258C198.452 56.566 196.874 58.5697 195.708 59.8877Z"
              fill="#2F2E41"/>
        <path d="M261.649 171.836H31.6751C31.5769 171.836 31.4829 171.794 31.4136 171.721C31.3442 171.647 31.3053 171.547 31.3053 171.443C31.3053 171.338 31.3442 171.238 31.4136 171.165C31.4829 171.091 31.5769 171.049 31.6751 171.049H261.649C261.748 171.049 261.842 171.091 261.911 171.165C261.98 171.238 262.019 171.338 262.019 171.443C262.019 171.547 261.98 171.647 261.911 171.721C261.842 171.794 261.748 171.836 261.649 171.836Z"
              fill="#3F3D56"/>
        <path d="M146.091 135.745H105.596C105.063 135.748 104.551 135.526 104.171 135.128C103.791 134.731 103.576 134.189 103.572 133.623V37.6696C103.576 37.1035 103.791 36.5622 104.171 36.1645C104.551 35.7668 105.063 35.5452 105.596 35.5482H146.091C146.624 35.5452 147.137 35.7668 147.516 36.1645C147.896 36.5622 148.111 37.1035 148.115 37.6696V133.623C148.111 134.189 147.896 134.731 147.516 135.128C147.137 135.526 146.624 135.748 146.091 135.745Z"
              fill="white"/>
        <path d="M148.115 66.5958H103.572V67.2571H148.115V66.5958Z" fill="#CCCCCC"/>
        <path d="M148.271 104.33H103.728V104.991H148.271V104.33Z" fill="#CCCCCC"/>
        <path d="M118.212 35.5482H117.589V136.075H118.212V35.5482Z" fill="#CCCCCC"/>
        <path d="M133.787 35.5482H133.164V136.075H133.787V35.5482Z" fill="#CCCCCC"/>
    </g>
    <defs>
        <clipPath id="clip0">
            <rect width="271" height="172" fill="white"/>
        </clipPath>
    </defs>
</svg>
